# xmcd
#
# Track frame offsets:
#	150
#	9921
#	22935
#	35209
#	51817
#	61607
#	71560
#	87019
#	103516
#	115872
#	128372
#	141058
#	150211
#	160910
#	175164
#	187147
#	200257
#	215915
#	226750
#	244412
#	253670
#	264959
#	281602
#
# Disc length: 3932 seconds
#
# Revision: 1
# Processed by: cddbd v1.5.2PL0 Copyright (c) Steve Scherf et al.
# Submitted via: audiograbber 1.83.01
#
DISCID=300f5a17
DTITLE=Lévis Bouliane - Vole colombe
DYEAR=1900
DGENRE=FR
TTITLE0=Plus qu'hier, moins que demain
TTITLE1=À ma fenêtre
TTITLE2=Vole colombe
TTITLE3=Plus loin, toujours plus loin
TTITLE4=Je te rejoindrai
TTITLE5=Ne me refuse pas ce soir
TTITLE6=Peine d'un coeur
TTITLE7=Mes souvenirs bleus
TTITLE8=Dans les rues de ma ville
TTITLE9=Un an de plus
TTITLE10=Toujours près de toi
TTITLE11=Comme d'habitude tu reviendras toujours
TTITLE12=L'amour est la loi
TTITLE13=Auprès du feu
TTITLE14=Je veux t'aimer une autre fois
TTITLE15=Toi qui connais ma douleur
TTITLE16=Demain tu dois partir
TTITLE17=Le chemin du prisonnier
TTITLE18=L'orphelin de Noël
TTITLE19=Le reel du festival
TTITLE20=Ne m'en veux pas
TTITLE21=Je ferai tout pour changer ma vie
TTITLE22=Guide-moi vers ma maison
EXTD=
EXTT0=
EXTT1=
EXTT2=
EXTT3=
EXTT4=
EXTT5=
EXTT6=
EXTT7=
EXTT8=
EXTT9=
EXTT10=
EXTT11=
EXTT12=
EXTT13=
EXTT14=
EXTT15=
EXTT16=
EXTT17=
EXTT18=
EXTT19=
EXTT20=
EXTT21=
EXTT22=
PLAYORDER=
